# xmcd
#
# Track frame offsets:
#	150
#	18765
#	36310
#	50918
#	67844
#
# Disc length: 1085 seconds
#
# Revision: 1
# Processed by: cddbd v1.5.2PL0 Copyright (c) Steve Scherf et al.
# Submitted via: EasyCDDAExtractor 11.0.0.1
#
DISCID=3b043b05
DTITLE=ΤΑσσιος ΓιΑννης - ΔΥσκολα Η εΥκολα
DYEAR=1998
DGENRE=ΛΑΪΚΑ
TTITLE0=ΔΥΣΚΟΛΑ Η ΕΥΚΟΛΑ
TTITLE1=ΞΕΧΝΑ ΤΟ
TTITLE2=ΜΙΑ ΠΟΥ ΤΟ ΕΦΕΡΕ Η ΣΤΙΓΜΗ
TTITLE3=ΟΥΡΑΝΟΣ
TTITLE4=ΠΕΣ ΜΟΥ
EXTD=
EXTT0=
EXTT1=
EXTT2=
EXTT3=
EXTT4=
PLAYORDER=
